<mxfile host="app.diagrams.net" modified="2020-12-08T08:21:22.876Z" agent="5.0 (Windows NT 10.0; Win64; x64) AppleWebKit/537.36 (KHTML, like Gecko) Chrome/87.0.4280.88 Safari/537.36" etag="X7_on99M6S2zpWuoWSD7" version="13.10.9" type="github">
  <diagram name="Page-1" id="e7e014a7-5840-1c2e-5031-d8a46d1fe8dd">
    <mxGraphModel dx="2015" dy="1105" grid="1" gridSize="10" guides="1" tooltips="1" connect="1" arrows="1" fold="1" page="1" pageScale="1" pageWidth="827" pageHeight="1169" background="#ffffff" math="0" shadow="0">
      <root>
        <mxCell id="0" />
        <mxCell id="1" parent="0" />
        <mxCell id="8efTD4OEWqOGp4i1g3Z0-41" value="" style="ellipse;fillColor=#000000;strokeColor=none;" vertex="1" parent="1">
          <mxGeometry x="389" y="180" width="50" height="50" as="geometry" />
        </mxCell>
        <mxCell id="8efTD4OEWqOGp4i1g3Z0-42" value="نام کاربری و رمز عبور را وارد کنید." style="shape=rect;html=1;rounded=1;whiteSpace=wrap;align=center;fontSize=21;fontStyle=1" vertex="1" parent="1">
          <mxGeometry x="324" y="290" width="180" height="80" as="geometry" />
        </mxCell>
        <mxCell id="8efTD4OEWqOGp4i1g3Z0-43" value="" style="endArrow=open;endFill=1;endSize=12;html=1;fontSize=21;exitX=0.5;exitY=1;exitDx=0;exitDy=0;entryX=0.5;entryY=0;entryDx=0;entryDy=0;" edge="1" parent="1" source="8efTD4OEWqOGp4i1g3Z0-41" target="8efTD4OEWqOGp4i1g3Z0-42">
          <mxGeometry width="160" relative="1" as="geometry">
            <mxPoint x="439" y="430" as="sourcePoint" />
            <mxPoint x="599" y="430" as="targetPoint" />
          </mxGeometry>
        </mxCell>
        <mxCell id="8efTD4OEWqOGp4i1g3Z0-44" value="بررسی صحت نام کاربری و رمز عبور" style="shape=rect;html=1;rounded=1;whiteSpace=wrap;align=center;fontSize=21;fontStyle=1" vertex="1" parent="1">
          <mxGeometry x="324" y="430" width="180" height="80" as="geometry" />
        </mxCell>
        <mxCell id="8efTD4OEWqOGp4i1g3Z0-45" value="" style="endArrow=open;endFill=1;endSize=12;html=1;fontSize=21;exitX=0.5;exitY=1;exitDx=0;exitDy=0;entryX=0.5;entryY=0;entryDx=0;entryDy=0;" edge="1" parent="1" source="8efTD4OEWqOGp4i1g3Z0-42" target="8efTD4OEWqOGp4i1g3Z0-44">
          <mxGeometry width="160" relative="1" as="geometry">
            <mxPoint x="413.5" y="380" as="sourcePoint" />
            <mxPoint x="413.5" y="440" as="targetPoint" />
          </mxGeometry>
        </mxCell>
        <mxCell id="8efTD4OEWqOGp4i1g3Z0-46" value="" style="rhombus;fontSize=21;" vertex="1" parent="1">
          <mxGeometry x="389" y="580" width="50" height="50" as="geometry" />
        </mxCell>
        <mxCell id="8efTD4OEWqOGp4i1g3Z0-47" value="" style="endArrow=open;endFill=1;endSize=12;html=1;fontSize=21;exitX=0.5;exitY=1;exitDx=0;exitDy=0;entryX=0.5;entryY=0;entryDx=0;entryDy=0;" edge="1" parent="1" source="8efTD4OEWqOGp4i1g3Z0-44" target="8efTD4OEWqOGp4i1g3Z0-46">
          <mxGeometry width="160" relative="1" as="geometry">
            <mxPoint x="453" y="530" as="sourcePoint" />
            <mxPoint x="453" y="590" as="targetPoint" />
          </mxGeometry>
        </mxCell>
        <mxCell id="8efTD4OEWqOGp4i1g3Z0-50" value="" style="endArrow=open;endFill=1;endSize=12;html=1;fontSize=21;exitX=0.5;exitY=1;exitDx=0;exitDy=0;entryX=0.5;entryY=0;entryDx=0;entryDy=0;" edge="1" parent="1" source="8efTD4OEWqOGp4i1g3Z0-46" target="8efTD4OEWqOGp4i1g3Z0-53">
          <mxGeometry width="160" relative="1" as="geometry">
            <mxPoint x="414" y="650" as="sourcePoint" />
            <mxPoint x="414" y="700" as="targetPoint" />
          </mxGeometry>
        </mxCell>
        <mxCell id="8efTD4OEWqOGp4i1g3Z0-51" value="معتبر" style="edgeLabel;html=1;align=center;verticalAlign=middle;resizable=0;points=[];fontSize=21;" vertex="1" connectable="0" parent="8efTD4OEWqOGp4i1g3Z0-50">
          <mxGeometry x="-0.4" relative="1" as="geometry">
            <mxPoint as="offset" />
          </mxGeometry>
        </mxCell>
        <mxCell id="8efTD4OEWqOGp4i1g3Z0-52" value="" style="ellipse;html=1;shape=endState;fillColor=#000000;strokeColor=#ff0000;fontSize=21;" vertex="1" parent="1">
          <mxGeometry x="391.5" y="912" width="50" height="50" as="geometry" />
        </mxCell>
        <mxCell id="8efTD4OEWqOGp4i1g3Z0-53" value="ورود موفق" style="shape=rect;html=1;rounded=1;whiteSpace=wrap;align=center;fontSize=21;fontStyle=1" vertex="1" parent="1">
          <mxGeometry x="329" y="710" width="175" height="50" as="geometry" />
        </mxCell>
        <mxCell id="8efTD4OEWqOGp4i1g3Z0-54" value="" style="endArrow=open;endFill=1;endSize=12;html=1;fontSize=21;exitX=0.5;exitY=1;exitDx=0;exitDy=0;entryX=0.5;entryY=0;entryDx=0;entryDy=0;" edge="1" parent="1" source="8efTD4OEWqOGp4i1g3Z0-53" target="8efTD4OEWqOGp4i1g3Z0-55">
          <mxGeometry width="160" relative="1" as="geometry">
            <mxPoint x="429" y="790" as="sourcePoint" />
            <mxPoint x="589" y="790" as="targetPoint" />
          </mxGeometry>
        </mxCell>
        <mxCell id="8efTD4OEWqOGp4i1g3Z0-55" value="ورود به صفحه کاربر" style="shape=rect;html=1;rounded=1;whiteSpace=wrap;align=center;fontSize=21;fontStyle=1" vertex="1" parent="1">
          <mxGeometry x="329" y="810" width="175" height="50" as="geometry" />
        </mxCell>
        <mxCell id="8efTD4OEWqOGp4i1g3Z0-56" value="" style="endArrow=open;endFill=1;endSize=12;html=1;fontSize=21;exitX=0.5;exitY=1;exitDx=0;exitDy=0;entryX=0.5;entryY=0;entryDx=0;entryDy=0;" edge="1" parent="1" source="8efTD4OEWqOGp4i1g3Z0-55" target="8efTD4OEWqOGp4i1g3Z0-52">
          <mxGeometry width="160" relative="1" as="geometry">
            <mxPoint x="629" y="862" as="sourcePoint" />
            <mxPoint x="629" y="912" as="targetPoint" />
            <Array as="points" />
          </mxGeometry>
        </mxCell>
      </root>
    </mxGraphModel>
  </diagram>
</mxfile>
